<svg xmlns="http://www.w3.org/2000/svg" width="1132" height="1323" fill="none"><path d="M1286.74 465.299c184.07 72.77 392.28-17.455 465.05-201.523 72.77-184.07-17.45-392.279-201.52-465.05-184.07-72.77-392.28 17.455-465.05 201.523-72.77 184.069 17.45 392.279 201.52 465.05Z" stroke="url(#a)" stroke-miterlimit="10"/><path d="M1286.45 466.045c184.07 72.77 392.27-17.455 465.05-201.523 72.77-184.07-17.46-392.279-201.53-465.049-184.07-72.771-392.28 17.454-465.05 201.523-72.77 184.068 17.46 392.278 201.53 465.049Z" stroke="url(#b)" stroke-miterlimit="10"/><path d="M1285.87 467.492c184.07 72.771 392.28-17.454 465.05-201.523 72.77-184.068-17.45-392.278-201.52-465.049-184.07-72.77-392.28 17.454-465.05 201.523-72.77 184.069 17.45 392.279 201.52 465.049Z" stroke="url(#c)" stroke-miterlimit="10"/><path d="M1285.01 469.686c184.07 72.771 392.27-17.454 465.05-201.523 72.77-184.069-17.46-392.278-201.53-465.049-184.07-72.771-392.28 17.454-465.05 201.523-72.77 184.069 17.46 392.279 201.53 465.049Z" stroke="url(#d)" stroke-miterlimit="10"/><path d="M1283.86 472.582c184.07 72.771 392.28-17.454 465.05-201.523 72.77-184.069-17.45-392.278-201.52-465.049-184.07-72.771-392.28 17.454-465.05 201.523-72.77 184.069 17.45 392.278 201.52 465.049Z" stroke="url(#e)" stroke-miterlimit="10"/><path d="M1282.39 476.162c184.07 72.771 392.28-17.454 465.05-201.523 72.77-184.068-17.45-392.278-201.52-465.049-184.07-72.771-392.28 17.454-465.05 201.523-72.77 184.069 17.46 392.279 201.52 465.049Z" stroke="url(#f)" stroke-miterlimit="10"/><path d="M1280.62 480.532c184.06 72.771 392.27-17.454 465.04-201.523 72.78-184.068-17.45-392.278-201.52-465.049-184.07-72.77-392.28 17.455-465.05 201.523-72.77 184.069 17.46 392.279 201.53 465.049Z" stroke="url(#g)" stroke-miterlimit="10"/><path d="M1278.56 485.605c184.07 72.771 392.28-17.454 465.05-201.523 72.77-184.069-17.45-392.278-201.52-465.049-184.07-72.771-392.28 17.454-465.05 201.523-72.77 184.069 17.45 392.278 201.52 465.049Z" stroke="url(#h)" stroke-miterlimit="10"/><path d="M1276.18 491.362c184.07 72.771 392.28-17.454 465.05-201.523 72.77-184.068-17.45-392.278-201.52-465.049-184.07-72.771-392.28 17.454-465.05 201.523-72.77 184.069 17.45 392.278 201.52 465.049Z" stroke="url(#i)" stroke-miterlimit="10"/><path d="M1273.47 497.848c184.07 72.77 392.28-17.455 465.05-201.523 72.77-184.069-17.46-392.279-201.53-465.05-184.07-72.77-392.28 17.455-465.05 201.523-72.767 184.069 17.46 392.279 201.53 465.05Z" stroke="url(#j)" stroke-miterlimit="10"/><path d="M1270.47 505.035c184.07 72.771 392.28-17.454 465.05-201.523 72.77-184.069-17.45-392.278-201.52-465.049-184.07-72.771-392.28 17.454-465.05 201.523-72.771 184.069 17.45 392.278 201.52 465.049Z" stroke="url(#k)" stroke-miterlimit="10"/><path d="M1267.1 512.934c184.07 72.771 392.27-17.454 465.05-201.523 72.77-184.069-17.46-392.278-201.53-465.049-184.07-72.771-392.28 17.454-465.05 201.523-72.767 184.069 17.46 392.278 201.53 465.049Z" stroke="url(#l)" stroke-miterlimit="10"/><path d="M1263.35 521.5c184.07 72.771 392.28-17.454 465.05-201.523 72.77-184.069-17.45-392.278-201.52-465.049-184.07-72.771-392.28 17.454-465.05 201.523-72.769 184.069 17.46 392.278 201.52 465.049Z" stroke="url(#m)" stroke-miterlimit="10"/><path d="M1259.29 530.751c184.07 72.771 392.28-17.454 465.05-201.523 72.77-184.069-17.45-392.278-201.52-465.049-184.07-72.771-392.28 17.454-465.05 201.523-72.773 184.069 17.45 392.278 201.52 465.049Z" stroke="url(#n)" stroke-miterlimit="10"/><path d="M1254.82 540.651c184.07 72.771 392.28-17.454 465.05-201.523 72.77-184.069-17.46-392.278-201.53-465.049-184.06-72.771-392.27 17.454-465.04 201.523-72.775 184.069 17.45 392.279 201.52 465.049Z" stroke="url(#o)" stroke-miterlimit="10"/><path d="M1250.01 551.281c184.07 72.771 392.28-17.454 465.05-201.523 72.77-184.069-17.46-392.278-201.53-465.049-184.07-72.771-392.27 17.454-465.05 201.523-72.766 184.069 17.46 392.278 201.53 465.049Z" stroke="url(#p)" stroke-miterlimit="10"/><path d="M1244.74 562.543c184.07 72.771 392.28-17.454 465.05-201.523 72.77-184.068-17.45-392.278-201.52-465.049-184.07-72.77-392.28 17.454-465.05 201.523-72.769 184.069 17.46 392.279 201.52 465.049Z" stroke="url(#q)" stroke-miterlimit="10"/><path d="M1239.13 574.429c184.07 72.77 392.28-17.455 465.05-201.523 72.77-184.069-17.45-392.279-201.52-465.05-184.07-72.77-392.28 17.455-465.05 201.524-72.772 184.068 17.45 392.278 201.52 465.049Z" stroke="url(#r)" stroke-miterlimit="10"/><path d="M1233.07 586.947c184.07 72.77 392.28-17.454 465.05-201.523 72.77-184.069-17.46-392.279-201.53-465.05-184.07-72.77-392.27 17.455-465.05 201.524-72.766 184.068 17.46 392.278 201.53 465.049Z" stroke="url(#s)" stroke-miterlimit="10"/><path d="M1226.52 600.036c184.07 72.77 392.28-17.455 465.05-201.523 72.77-184.069-17.45-392.279-201.52-465.05-184.07-72.77-392.28 17.455-465.05 201.523-72.773 184.069 17.45 392.279 201.52 465.05Z" stroke="url(#t)" stroke-miterlimit="10"/><path d="M1219.58 613.731c184.07 72.771 392.28-17.454 465.05-201.523 72.77-184.068-17.45-392.278-201.52-465.049-184.07-72.77-392.28 17.454-465.05 201.523-72.769 184.069 17.46 392.279 201.52 465.049Z" stroke="url(#u)" stroke-miterlimit="10"/><path d="M1212.21 628.016c184.07 72.771 392.28-17.454 465.05-201.523 72.77-184.069-17.45-392.278-201.52-465.049-184.07-72.771-392.28 17.454-465.05 201.523-72.771 184.069 17.45 392.278 201.52 465.049Z" stroke="url(#v)" stroke-miterlimit="10"/><path d="M1204.27 642.837c184.07 72.771 392.28-17.454 465.05-201.523 72.77-184.069-17.45-392.279-201.52-465.05-184.07-72.77-392.28 17.455-465.05 201.524-72.771 184.069 17.45 392.278 201.52 465.049Z" stroke="url(#w)" stroke-miterlimit="10"/><path d="M1195.93 658.159c184.07 72.771 392.28-17.454 465.05-201.523 72.77-184.069-17.45-392.279-201.52-465.05-184.07-72.77-392.28 17.455-465.051 201.524-72.77 184.069 17.451 392.278 201.521 465.049Z" stroke="url(#x)" stroke-miterlimit="10"/><path d="M1187.04 673.974c184.07 72.771 392.28-17.454 465.05-201.523 72.77-184.069-17.45-392.279-201.52-465.05-184.07-72.77-392.28 17.455-465.051 201.524-72.771 184.069 17.451 392.278 201.521 465.049Z" stroke="url(#y)" stroke-miterlimit="10"/><path d="M1177.68 690.211c184.07 72.771 392.28-17.454 465.05-201.523 72.77-184.069-17.46-392.278-201.52-465.049-184.07-72.77-392.28 17.454-465.053 201.523-72.771 184.069 17.454 392.278 201.523 465.049Z" stroke="url(#z)" stroke-miterlimit="10"/><path d="M1167.74 706.881c184.07 72.77 392.28-17.455 465.05-201.523 72.77-184.069-17.45-392.279-201.52-465.05-184.07-72.77-392.28 17.455-465.051 201.523-72.77 184.069 17.454 392.279 201.521 465.05Z" stroke="url(#A)" stroke-miterlimit="10"/><path d="M1157.31 723.911c184.06 72.77 392.27-17.455 465.04-201.523 72.78-184.069-17.45-392.279-201.52-465.05-184.07-72.77-392.28 17.455-465.047 201.524-72.771 184.068 17.454 392.278 201.527 465.049Z" stroke="url(#B)" stroke-miterlimit="10"/><path d="M1146.33 741.285c184.07 72.77 392.28-17.455 465.05-201.523 72.77-184.069-17.46-392.279-201.53-465.05-184.07-72.77-392.28 17.455-465.046 201.523-72.771 184.069 17.454 392.279 201.526 465.05Z" stroke="url(#C)" stroke-miterlimit="10"/><path d="M1134.76 758.985c184.07 72.771 392.28-17.454 465.05-201.523 72.77-184.069-17.45-392.278-201.52-465.049-184.07-72.77-392.28 17.454-465.05 201.523-72.771 184.069 17.454 392.278 201.52 465.049Z" stroke="url(#D)" stroke-miterlimit="10"/><path d="M1122.68 776.837c184.07 72.771 392.28-17.454 465.05-201.523 72.77-184.069-17.45-392.278-201.52-465.049-184.07-72.77-392.279 17.454-465.05 201.523-72.77 184.069 17.455 392.278 201.52 465.049Z" stroke="url(#E)" stroke-miterlimit="10"/><path d="M1110.01 794.91c184.07 72.771 392.28-17.454 465.05-201.523 72.77-184.068-17.46-392.278-201.52-465.049-184.07-72.77-392.283 17.454-465.054 201.523C835.715 513.93 925.94 722.14 1110.01 794.91Z" stroke="url(#F)" stroke-miterlimit="10"/><path d="M1096.79 813.073c184.07 72.771 392.28-17.454 465.05-201.523 72.77-184.069-17.46-392.279-201.52-465.049-184.07-72.771-392.283 17.454-465.053 201.523-72.771 184.068 17.454 392.278 201.523 465.049Z" stroke="url(#G)" stroke-miterlimit="10"/><path d="M1082.99 831.308c184.06 72.771 392.27-17.454 465.04-201.523 72.77-184.069-17.45-392.278-201.52-465.049-184.07-72.77-392.277 17.454-465.048 201.523-72.771 184.069 17.454 392.278 201.528 465.049Z" stroke="url(#H)" stroke-miterlimit="10"/><path d="M1068.61 849.572c184.07 72.771 392.28-17.454 465.05-201.523 72.77-184.068-17.45-392.278-201.52-465.049-184.07-72.77-392.28 17.454-465.051 201.523-72.771 184.069 17.454 392.279 201.521 465.049Z" stroke="url(#I)" stroke-miterlimit="10"/><path d="M1053.69 867.672c184.07 72.77 392.28-17.454 465.05-201.523 72.77-184.069-17.45-392.279-201.52-465.049-184.07-72.771-392.279 17.454-465.049 201.523-72.771 184.068 17.454 392.278 201.519 465.049Z" stroke="url(#J)" stroke-miterlimit="10"/><path d="M1038.21 885.651c184.07 72.771 392.28-17.454 465.05-201.523 72.77-184.069-17.45-392.278-201.52-465.049-184.07-72.771-392.278 17.454-465.048 201.523-72.771 184.069 17.454 392.278 201.518 465.049Z" stroke="url(#K)" stroke-miterlimit="10"/><path d="M1022.18 903.361c184.07 72.771 392.28-17.454 465.05-201.523 72.77-184.069-17.45-392.279-201.52-465.049-184.07-72.771-392.28 17.454-465.051 201.523-72.77 184.069 17.454 392.278 201.521 465.049Z" stroke="url(#L)" stroke-miterlimit="10"/><path d="M1005.66 920.775c184.07 72.77 392.28-17.455 465.05-201.523 72.77-184.069-17.46-392.279-201.53-465.049-184.06-72.771-392.274 17.454-465.045 201.523-72.771 184.068 17.454 392.278 201.525 465.049Z" stroke="url(#M)" stroke-miterlimit="10"/><path d="M988.607 937.727c184.073 72.773 392.283-17.455 465.053-201.523 72.77-184.069-17.46-392.279-201.53-465.05-184.07-72.77-392.275 17.455-465.046 201.523-72.771 184.069 17.454 392.279 201.523 465.05Z" stroke="url(#N)" stroke-miterlimit="10"/><path d="M971.028 954.216c184.072 72.774 392.282-17.454 465.052-201.523 72.77-184.069-17.46-392.278-201.53-465.049-184.07-72.771-392.275 17.454-465.045 201.523-72.771 184.069 17.454 392.278 201.523 465.049Z" stroke="url(#O)" stroke-miterlimit="10"/><path d="M953.008 970.024c184.072 72.766 392.282-17.454 465.052-201.523 72.77-184.069-17.46-392.278-201.53-465.049-184.06-72.771-392.274 17.454-465.045 201.523-72.771 184.069 17.454 392.278 201.523 465.049Z" stroke="url(#P)" stroke-miterlimit="10"/><path d="M934.546 985.15c184.074 72.77 392.274-17.454 465.054-201.523 72.77-184.069-17.46-392.279-201.53-465.049-184.07-72.771-392.276 17.454-465.046 201.523-72.771 184.069 17.454 392.278 201.522 465.049Z" stroke="url(#Q)" stroke-miterlimit="10"/><path d="M915.67 999.401c184.07 72.769 392.28-17.454 465.05-201.523 72.77-184.069-17.45-392.278-201.52-465.049-184.073-72.771-392.282 17.454-465.053 201.523-72.771 184.069 17.454 392.279 201.523 465.049Z" stroke="url(#R)" stroke-miterlimit="10"/><path d="M896.44 1012.75c184.07 72.77 392.28-17.452 465.05-201.521 72.77-184.069-17.45-392.278-201.52-465.049-184.073-72.771-392.282 17.454-465.053 201.523-72.771 184.069 17.454 392.278 201.523 465.047Z" stroke="url(#S)" stroke-miterlimit="10"/><path d="M876.881 1025.01c184.069 72.77 392.279-17.46 465.049-201.524 72.77-184.069-17.45-392.278-201.52-465.049-184.071-72.771-392.281 17.454-465.051 201.523-72.771 184.069 17.454 392.278 201.522 465.05Z" stroke="url(#T)" stroke-miterlimit="10"/><path d="M857.073 1036.1c184.067 72.77 392.277-17.45 465.047-201.521 72.77-184.069-17.45-392.278-201.52-465.049-184.069-72.771-392.279 17.454-465.05 201.523-72.77 184.069 17.455 392.278 201.523 465.047Z" stroke="url(#U)" stroke-miterlimit="10"/><path d="M837.006 1045.93c184.064 72.77 392.274-17.46 465.054-201.528 72.77-184.068-17.46-392.278-201.53-465.049-184.067-72.77-392.276 17.455-465.047 201.523-72.771 184.069 17.454 392.279 201.523 465.054Z" stroke="url(#V)" stroke-miterlimit="10"/><path d="M816.792 1054.32c184.068 72.77 392.278-17.45 465.048-201.522 72.77-184.069-17.45-392.278-201.52-465.049-184.071-72.771-392.28 17.454-465.051 201.523-72.771 184.069 17.454 392.278 201.523 465.048Z" stroke="url(#W)" stroke-miterlimit="10"/><path d="M796.484 1061.16c184.069 72.77 392.276-17.46 465.046-201.525 72.77-184.069-17.45-392.278-201.52-465.049-184.068-72.771-392.278 17.454-465.048 201.523-72.771 184.069 17.454 392.278 201.522 465.051Z" stroke="url(#X)" stroke-miterlimit="10"/><path d="M776.162 1066.37c184.069 72.77 392.278-17.46 465.048-201.528 72.77-184.069-17.45-392.278-201.52-465.049-184.071-72.771-392.28 17.454-465.051 201.523-72.771 184.069 17.454 392.278 201.523 465.054Z" stroke="url(#Y)" stroke-miterlimit="10"/><path d="M755.875 1069.81c184.069 72.77 392.275-17.45 465.045-201.522 72.78-184.069-17.45-392.279-201.52-465.049-184.068-72.771-392.277 17.454-465.048 201.523-72.771 184.068 17.454 392.278 201.523 465.048Z" stroke="url(#Z)" stroke-miterlimit="10"/><path d="M735.757 1071.29c184.068 72.77 392.273-17.45 465.053-201.52 72.77-184.068-17.46-392.278-201.527-465.049-184.069-72.77-392.279 17.455-465.049 201.523-72.771 184.069 17.454 392.279 201.523 465.046Z" stroke="url(#aa)" stroke-miterlimit="10"/><path d="M715.805 1070.81c184.069 72.77 392.275-17.45 465.045-201.52 72.78-184.069-17.45-392.278-201.519-465.049-184.068-72.771-392.278 17.454-465.049 201.523-72.77 184.069 17.455 392.278 201.523 465.046Z" stroke="url(#ab)" stroke-miterlimit="10"/><path d="M696.151 1068.17c184.069 72.77 392.279-17.46 465.049-201.526 72.77-184.069-17.45-392.278-201.523-465.049-184.069-72.771-392.278 17.454-465.049 201.523-72.771 184.069 17.454 392.278 201.523 465.052Z" stroke="url(#ac)" stroke-miterlimit="10"/><path d="M676.979 1063.28c184.068 72.77 392.281-17.46 465.051-201.527 72.77-184.069-17.46-392.278-201.525-465.049-184.069-72.771-392.279 17.454-465.049 201.523-72.771 184.069 17.454 392.278 201.523 465.053Z" stroke="url(#ad)" stroke-miterlimit="10"/><path d="M658.279 1056.04c184.069 72.77 392.281-17.46 465.051-201.527 72.77-184.069-17.46-392.279-201.525-465.049-184.069-72.771-392.278 17.454-465.049 201.523-72.771 184.068 17.454 392.278 201.523 465.053Z" stroke="url(#ae)" stroke-miterlimit="10"/><path d="M640.192 1046.35c184.069 72.77 392.278-17.46 465.048-201.525 72.77-184.068-17.45-392.278-201.522-465.049-184.069-72.77-392.278 17.454-465.049 201.523-72.771 184.069 17.454 392.279 201.523 465.051Z" stroke="url(#af)" stroke-miterlimit="10"/><path d="M622.813 1034.1c184.068 72.77 392.277-17.45 465.047-201.524 72.77-184.068-17.45-392.278-201.521-465.049C702.27 294.756 494.06 384.981 421.29 569.05c-72.771 184.069 17.454 392.279 201.523 465.05Z" stroke="url(#ag)" stroke-miterlimit="10"/><path d="M606.326 1019.21c184.069 72.77 392.278-17.45 465.044-201.523 72.78-184.068-17.45-392.278-201.518-465.049-184.069-72.77-392.278 17.455-465.049 201.523-72.771 184.069 17.454 392.279 201.523 465.049Z" stroke="url(#ah)" stroke-miterlimit="10"/><path d="M590.747 1001.64c184.069 72.77 392.278-17.458 465.053-201.527 72.77-184.069-17.46-392.278-201.527-465.049-184.069-72.771-392.279 17.454-465.049 201.523-72.771 184.069 17.454 392.278 201.523 465.053Z" stroke="url(#ai)" stroke-miterlimit="10"/><path d="M576.245 981.342c184.069 72.768 392.278-17.454 465.045-201.523 72.77-184.069-17.45-392.278-201.519-465.049-184.069-72.771-392.278 17.454-465.049 201.523-72.771 184.069 17.454 392.278 201.523 465.049Z" stroke="url(#aj)" stroke-miterlimit="10"/><path d="M562.958 958.231C747.026 1031 955.236 940.777 1028.01 756.708c72.77-184.069-17.46-392.279-201.526-465.049-184.069-72.771-392.279 17.454-465.049 201.523-72.771 184.068 17.454 392.278 201.523 465.049Z" stroke="url(#ak)" stroke-miterlimit="10"/><path d="M550.99 932.292c184.069 72.768 392.278-17.454 465.05-201.523 72.77-184.069-17.455-392.278-201.524-465.049-184.069-72.771-392.278 17.454-465.049 201.523-72.771 184.069 17.454 392.278 201.523 465.049Z" stroke="url(#al)" stroke-miterlimit="10"/><path d="M540.509 903.492c184.069 72.77 392.278-17.455 465.051-201.523C1078.33 517.9 988.104 309.69 804.035 236.92c-184.069-72.771-392.278 17.454-465.049 201.522-72.771 184.069 17.454 392.279 201.523 465.05Z" stroke="url(#am)" stroke-miterlimit="10"/><path d="M531.541 871.89C715.61 944.661 923.82 854.436 996.59 670.367c72.77-184.069-17.454-392.278-201.523-465.049-184.069-72.77-392.278 17.454-465.049 201.523C257.247 590.91 347.472 799.12 531.541 871.89Z" stroke="url(#an)" stroke-miterlimit="10"/><path d="M524.254 837.452c184.069 72.771 392.278-17.454 465.049-201.522 72.767-184.069-17.454-392.279-201.523-465.049-184.069-72.771-392.278 17.454-465.049 201.522-72.771 184.069 17.454 392.279 201.523 465.049Z" stroke="url(#ao)" stroke-miterlimit="10"/><path d="M518.804 800.291c184.069 72.771 392.279-17.454 465.049-201.523C1056.62 414.7 966.399 206.49 782.33 133.719c-184.068-72.77-392.278 17.454-465.049 201.523-72.77 184.069 17.455 392.279 201.523 465.049Z" stroke="url(#ap)" stroke-miterlimit="10"/><path d="M515.236 760.424c184.068 72.77 392.278-17.454 465.049-201.523 72.775-184.069-17.455-392.279-201.523-465.05-184.069-72.77-392.279 17.455-465.049 201.524-72.771 184.068 17.454 392.278 201.523 465.049Z" stroke="url(#aq)" stroke-miterlimit="10"/><path d="M513.68 717.903c184.069 72.77 392.279-17.455 465.049-201.523 72.771-184.069-17.454-392.279-201.523-465.05-184.068-72.77-392.278 17.455-465.049 201.523-72.77 184.069 17.455 392.279 201.523 465.05Z" stroke="url(#ar)" stroke-miterlimit="10"/><path d="M514.245 672.972c184.069 72.771 392.279-17.454 465.049-201.523C1052.07 287.38 961.84 79.171 777.771 6.4 593.703-66.37 385.493 23.854 312.722 207.923c-72.77 184.069 17.454 392.278 201.523 465.049Z" stroke="url(#as)" stroke-miterlimit="10"/><path d="M517.015 625.667c184.069 72.771 392.279-17.454 465.049-201.523 72.776-184.069-17.454-392.278-201.523-465.05-184.068-72.77-392.278 17.455-465.049 201.524-72.77 184.069 17.454 392.278 201.523 465.049Z" stroke="url(#at)" stroke-miterlimit="10"/><path d="M522.057 576.216c184.069 72.77 392.278-17.455 465.049-201.523 72.774-184.069-17.454-392.279-201.523-465.05-184.069-72.77-392.278 17.455-465.049 201.523-72.771 184.069 17.454 392.279 201.523 465.05Z" stroke="url(#au)" stroke-miterlimit="10"/><path d="M529.446 524.8c184.069 72.771 392.279-17.454 465.05-201.523 72.774-184.068-17.455-392.278-201.523-465.049-184.069-72.77-392.279 17.455-465.05 201.523C255.153 243.82 345.378 452.03 529.446 524.8Z" stroke="url(#av)" stroke-miterlimit="10"/><path d="M539.246 471.649c184.069 72.771 392.279-17.454 465.054-201.523 72.77-184.068-17.459-392.278-201.528-465.049C618.704-267.693 410.494-177.469 337.723 6.6 264.953 190.67 355.177 398.88 539.246 471.65Z" stroke="url(#aw)" stroke-miterlimit="10"/><path d="M551.521 416.991c184.069 72.77 392.279-17.455 465.049-201.523 72.77-184.07-17.454-392.279-201.523-465.049-184.069-72.771-392.278 17.454-465.049 201.522-72.771 184.069 17.454 392.279 201.523 465.05Z" stroke="url(#ax)" stroke-miterlimit="10"/><path d="M566.19 361.148c184.069 72.771 392.279-17.454 465.05-201.523 72.77-184.069-17.45-392.278-201.524-465.049-184.069-72.771-392.278 17.454-465.049 201.523-72.771 184.069 17.454 392.278 201.523 465.049Z" stroke="url(#ay)" stroke-miterlimit="10"/><path d="M583.345 304.411c184.069 72.771 392.279-17.454 465.045-201.523 72.78-184.069-17.45-392.279-201.518-465.049-184.069-72.771-392.279 17.454-465.05 201.523-72.77 184.069 17.455 392.278 201.523 465.049Z" stroke="url(#az)" stroke-miterlimit="10"/><path d="M603.011 247.093c184.069 72.771 392.278-17.454 465.049-201.522 72.77-184.069-17.45-392.279-201.523-465.05-184.069-72.77-392.278 17.455-465.049 201.523-72.771 184.07 17.454 392.279 201.523 465.049Z" stroke="url(#aA)" stroke-miterlimit="10"/><path d="M625.034 189.592c184.069 72.771 392.276-17.454 465.046-201.523C1162.85-196 1072.63-404.209 888.56-476.98c-184.068-72.771-392.278 17.454-465.049 201.523-72.77 184.069 17.455 392.278 201.523 465.049Z" stroke="url(#aB)" stroke-miterlimit="10"/><path d="M649.467 132.282c184.069 72.771 392.283-17.454 465.053-201.523 72.77-184.069-17.46-392.278-201.526-465.049-184.069-72.771-392.279 17.454-465.05 201.523-72.77 184.069 17.455 392.278 201.523 465.049Z" stroke="url(#aC)" stroke-miterlimit="10"/><path d="M676.111 75.542c184.069 72.77 392.279-17.454 465.049-201.523 72.77-184.069-17.45-392.279-201.523-465.049-184.069-72.771-392.278 17.454-465.049 201.523C401.817-205.439 492.042 2.771 676.111 75.542Z" stroke="url(#aD)" stroke-miterlimit="10"/><path d="M704.966 19.879c184.069 72.77 392.274-17.455 465.054-201.523 72.77-184.069-17.46-392.279-201.528-465.049-184.069-72.771-392.278 17.454-465.049 201.522-72.771 184.069 17.454 392.279 201.523 465.05Z" stroke="url(#aE)" stroke-miterlimit="10"/><path d="M735.894-34.356c184.069 72.77 392.276-17.454 465.046-201.523 72.77-184.069-17.45-392.278-201.52-465.049-184.068-72.771-392.278 17.454-465.049 201.523C461.6-315.336 551.825-107.127 735.894-34.356Z" stroke="url(#aF)" stroke-miterlimit="10"/><path d="M768.688-86.636c184.068 72.77 392.282-17.454 465.052-201.523 72.77-184.069-17.46-392.278-201.53-465.049-184.065-72.771-392.275 17.454-465.045 201.523-72.771 184.069 17.454 392.278 201.523 465.05Z" stroke="url(#aG)" stroke-miterlimit="10"/><path d="M1390.28-112.018c184.06 72.77 392.27-17.455 465.04-201.523 72.78-184.069-17.45-392.279-201.52-465.049-184.07-72.771-392.28 17.454-465.05 201.523-72.77 184.068 17.46 392.278 201.53 465.049Z" stroke="url(#aH)" stroke-miterlimit="10"/><path d="M1393.26-48.081c184.07 72.77 392.27-17.454 465.05-201.523 72.77-184.069-17.46-392.278-201.53-465.049-184.07-72.771-392.28 17.454-465.05 201.523-72.77 184.069 17.46 392.278 201.53 465.049Z" stroke="url(#aI)" stroke-miterlimit="10"/><path d="M1391.35 20.773c184.07 72.77 392.28-17.454 465.05-201.523 72.77-184.069-17.45-392.278-201.52-465.049-184.07-72.771-392.28 17.454-465.05 201.523-72.77 184.069 17.45 392.278 201.52 465.049Z" stroke="url(#aJ)" stroke-miterlimit="10"/><path d="M1384.47 93.748c184.07 72.771 392.28-17.454 465.05-201.523 72.77-184.069-17.46-392.279-201.52-465.049-184.07-72.771-392.28 17.454-465.05 201.523-72.77 184.068 17.45 392.278 201.52 465.049Z" stroke="url(#aK)" stroke-miterlimit="10"/><path d="M1372.54 170.256c184.07 72.771 392.28-17.454 465.05-201.523 72.77-184.068-17.46-392.278-201.53-465.049-184.06-72.77-392.27 17.455-465.05 201.523-72.77 184.069 17.46 392.279 201.53 465.049Z" stroke="url(#aL)" stroke-miterlimit="10"/><path d="M1355.6 249.3c184.06 72.77 392.27-17.455 465.04-201.524 72.78-184.068-17.45-392.278-201.52-465.049-184.07-72.77-392.28 17.455-465.05 201.523-72.77 184.07 17.46 392.279 201.53 465.05Z" stroke="url(#aM)" stroke-miterlimit="10"/><path d="M1333.68 330.132c184.07 72.771 392.28-17.454 465.05-201.523 72.77-184.069-17.45-392.278-201.52-465.049-184.07-72.771-392.28 17.454-465.05 201.523-72.77 184.069 17.46 392.279 201.52 465.049Z" stroke="url(#aN)" stroke-miterlimit="10"/><path d="M1306.9 411.729c184.07 72.771 392.28-17.454 465.05-201.523 72.77-184.068-17.45-392.278-201.52-465.049-184.07-72.77-392.28 17.455-465.05 201.523-72.77 184.069 17.46 392.279 201.52 465.049Z" stroke="url(#aO)" stroke-miterlimit="10"/><defs><linearGradient id="a" x1="1550.27" y1="-201.274" x2="1286.74" y2="465.299" gradientUnits="userSpaceOnUse"><stop stop-color="#FA7E05" stop-opacity=".3"/><stop offset=".711" stop-color="#FA7E05" stop-opacity="0"/><stop offset="1" stop-color="#FA7E05" stop-opacity=".4"/></linearGradient><linearGradient id="b" x1="1549.97" y1="-200.527" x2="1286.45" y2="466.045" gradientUnits="userSpaceOnUse"><stop stop-color="#FA7E05" stop-opacity=".3"/><stop offset=".711" stop-color="#FA7E05" stop-opacity="0"/><stop offset="1" stop-color="#FA7E05" stop-opacity=".4"/></linearGradient><linearGradient id="c" x1="1549.4" y1="-199.08" x2="1285.87" y2="467.492" gradientUnits="userSpaceOnUse"><stop stop-color="#FA7E05" stop-opacity=".3"/><stop offset=".711" stop-color="#FA7E05" stop-opacity="0"/><stop offset="1" stop-color="#FA7E05" stop-opacity=".4"/></linearGradient><linearGradient id="d" x1="1548.53" y1="-196.886" x2="1285.01" y2="469.686" gradientUnits="userSpaceOnUse"><stop stop-color="#FA7E05" stop-opacity=".3"/><stop offset=".711" stop-color="#FA7E05" stop-opacity="0"/><stop offset="1" stop-color="#FA7E05" stop-opacity=".4"/></linearGradient><linearGradient id="e" x1="1547.39" y1="-193.99" x2="1283.86" y2="472.582" gradientUnits="userSpaceOnUse"><stop stop-color="#FA7E05" stop-opacity=".3"/><stop offset=".711" stop-color="#FA7E05" stop-opacity="0"/><stop offset="1" stop-color="#FA7E05" stop-opacity=".4"/></linearGradient><linearGradient id="f" x1="1545.92" y1="-190.41" x2="1282.39" y2="476.162" gradientUnits="userSpaceOnUse"><stop stop-color="#FA7E05" stop-opacity=".3"/><stop offset=".711" stop-color="#FA7E05" stop-opacity="0"/><stop offset="1" stop-color="#FA7E05" stop-opacity=".4"/></linearGradient><linearGradient id="g" x1="1544.14" y1="-186.04" x2="1280.62" y2="480.532" gradientUnits="userSpaceOnUse"><stop stop-color="#FA7E05" stop-opacity=".3"/><stop offset=".711" stop-color="#FA7E05" stop-opacity="0"/><stop offset="1" stop-color="#FA7E05" stop-opacity=".4"/></linearGradient><linearGradient id="h" x1="1542.09" y1="-180.967" x2="1278.56" y2="485.605" gradientUnits="userSpaceOnUse"><stop stop-color="#FA7E05" stop-opacity=".3"/><stop offset=".711" stop-color="#FA7E05" stop-opacity="0"/><stop offset="1" stop-color="#FA7E05" stop-opacity=".4"/></linearGradient><linearGradient id="i" x1="1539.71" y1="-175.21" x2="1276.18" y2="491.362" gradientUnits="userSpaceOnUse"><stop stop-color="#FA7E05" stop-opacity=".3"/><stop offset=".711" stop-color="#FA7E05" stop-opacity="0"/><stop offset="1" stop-color="#FA7E05" stop-opacity=".4"/></linearGradient><linearGradient id="j" x1="1536.99" y1="-168.724" x2="1273.47" y2="497.848" gradientUnits="userSpaceOnUse"><stop stop-color="#FA7E05" stop-opacity=".3"/><stop offset=".711" stop-color="#FA7E05" stop-opacity="0"/><stop offset="1" stop-color="#FA7E05" stop-opacity=".4"/></linearGradient><linearGradient id="k" x1="1534" y1="-161.537" x2="1270.47" y2="505.035" gradientUnits="userSpaceOnUse"><stop stop-color="#FA7E05" stop-opacity=".3"/><stop offset=".711" stop-color="#FA7E05" stop-opacity="0"/><stop offset="1" stop-color="#FA7E05" stop-opacity=".4"/></linearGradient><linearGradient id="l" x1="1530.62" y1="-153.638" x2="1267.1" y2="512.934" gradientUnits="userSpaceOnUse"><stop stop-color="#FA7E05" stop-opacity=".3"/><stop offset=".711" stop-color="#FA7E05" stop-opacity="0"/><stop offset="1" stop-color="#FA7E05" stop-opacity=".4"/></linearGradient><linearGradient id="m" x1="1526.88" y1="-145.072" x2="1263.35" y2="521.5" gradientUnits="userSpaceOnUse"><stop stop-color="#FA7E05" stop-opacity=".3"/><stop offset=".711" stop-color="#FA7E05" stop-opacity="0"/><stop offset="1" stop-color="#FA7E05" stop-opacity=".4"/></linearGradient><linearGradient id="n" x1="1522.82" y1="-135.821" x2="1259.29" y2="530.751" gradientUnits="userSpaceOnUse"><stop stop-color="#FA7E05" stop-opacity=".3"/><stop offset=".711" stop-color="#FA7E05" stop-opacity="0"/><stop offset="1" stop-color="#FA7E05" stop-opacity=".4"/></linearGradient><linearGradient id="o" x1="1518.34" y1="-125.921" x2="1254.82" y2="540.651" gradientUnits="userSpaceOnUse"><stop stop-color="#FA7E05" stop-opacity=".3"/><stop offset=".711" stop-color="#FA7E05" stop-opacity="0"/><stop offset="1" stop-color="#FA7E05" stop-opacity=".4"/></linearGradient><linearGradient id="p" x1="1513.53" y1="-115.291" x2="1250.01" y2="551.281" gradientUnits="userSpaceOnUse"><stop stop-color="#FA7E05" stop-opacity=".3"/><stop offset=".711" stop-color="#FA7E05" stop-opacity="0"/><stop offset="1" stop-color="#FA7E05" stop-opacity=".4"/></linearGradient><linearGradient id="q" x1="1508.27" y1="-104.029" x2="1244.74" y2="562.543" gradientUnits="userSpaceOnUse"><stop stop-color="#FA7E05" stop-opacity=".3"/><stop offset=".711" stop-color="#FA7E05" stop-opacity="0"/><stop offset="1" stop-color="#FA7E05" stop-opacity=".4"/></linearGradient><linearGradient id="r" x1="1502.66" y1="-92.143" x2="1239.13" y2="574.429" gradientUnits="userSpaceOnUse"><stop stop-color="#FA7E05" stop-opacity=".3"/><stop offset=".711" stop-color="#FA7E05" stop-opacity="0"/><stop offset="1" stop-color="#FA7E05" stop-opacity=".4"/></linearGradient><linearGradient id="s" x1="1496.59" y1="-79.625" x2="1233.07" y2="586.947" gradientUnits="userSpaceOnUse"><stop stop-color="#FA7E05" stop-opacity=".3"/><stop offset=".711" stop-color="#FA7E05" stop-opacity="0"/><stop offset="1" stop-color="#FA7E05" stop-opacity=".4"/></linearGradient><linearGradient id="t" x1="1490.05" y1="-66.537" x2="1226.52" y2="600.036" gradientUnits="userSpaceOnUse"><stop stop-color="#FA7E05" stop-opacity=".3"/><stop offset=".711" stop-color="#FA7E05" stop-opacity="0"/><stop offset="1" stop-color="#FA7E05" stop-opacity=".4"/></linearGradient><linearGradient id="u" x1="1483.11" y1="-52.841" x2="1219.58" y2="613.731" gradientUnits="userSpaceOnUse"><stop stop-color="#FA7E05" stop-opacity=".3"/><stop offset=".711" stop-color="#FA7E05" stop-opacity="0"/><stop offset="1" stop-color="#FA7E05" stop-opacity=".4"/></linearGradient><linearGradient id="v" x1="1475.74" y1="-38.556" x2="1212.21" y2="628.016" gradientUnits="userSpaceOnUse"><stop stop-color="#FA7E05" stop-opacity=".3"/><stop offset=".711" stop-color="#FA7E05" stop-opacity="0"/><stop offset="1" stop-color="#FA7E05" stop-opacity=".4"/></linearGradient><linearGradient id="w" x1="1467.8" y1="-23.735" x2="1204.27" y2="642.837" gradientUnits="userSpaceOnUse"><stop stop-color="#FA7E05" stop-opacity=".3"/><stop offset=".711" stop-color="#FA7E05" stop-opacity="0"/><stop offset="1" stop-color="#FA7E05" stop-opacity=".4"/></linearGradient><linearGradient id="x" x1="1459.46" y1="-8.413" x2="1195.93" y2="658.159" gradientUnits="userSpaceOnUse"><stop stop-color="#FA7E05" stop-opacity=".3"/><stop offset=".711" stop-color="#FA7E05" stop-opacity="0"/><stop offset="1" stop-color="#FA7E05" stop-opacity=".4"/></linearGradient><linearGradient id="y" x1="1450.57" y1="7.402" x2="1187.04" y2="673.974" gradientUnits="userSpaceOnUse"><stop stop-color="#FA7E05" stop-opacity=".3"/><stop offset=".711" stop-color="#FA7E05" stop-opacity="0"/><stop offset="1" stop-color="#FA7E05" stop-opacity=".4"/></linearGradient><linearGradient id="z" x1="1441.21" y1="23.639" x2="1177.68" y2="690.211" gradientUnits="userSpaceOnUse"><stop stop-color="#FA7E05" stop-opacity=".3"/><stop offset=".711" stop-color="#FA7E05" stop-opacity="0"/><stop offset="1" stop-color="#FA7E05" stop-opacity=".4"/></linearGradient><linearGradient id="A" x1="1431.27" y1="40.309" x2="1167.74" y2="706.881" gradientUnits="userSpaceOnUse"><stop stop-color="#FA7E05" stop-opacity=".3"/><stop offset=".711" stop-color="#FA7E05" stop-opacity="0"/><stop offset="1" stop-color="#FA7E05" stop-opacity=".4"/></linearGradient><linearGradient id="B" x1="1420.83" y1="57.339" x2="1157.31" y2="723.911" gradientUnits="userSpaceOnUse"><stop stop-color="#FA7E05" stop-opacity=".3"/><stop offset=".711" stop-color="#FA7E05" stop-opacity="0"/><stop offset="1" stop-color="#FA7E05" stop-opacity=".4"/></linearGradient><linearGradient id="C" x1="1409.85" y1="74.713" x2="1146.33" y2="741.285" gradientUnits="userSpaceOnUse"><stop stop-color="#FA7E05" stop-opacity=".3"/><stop offset=".711" stop-color="#FA7E05" stop-opacity="0"/><stop offset="1" stop-color="#FA7E05" stop-opacity=".4"/></linearGradient><linearGradient id="D" x1="1398.29" y1="92.413" x2="1134.76" y2="758.985" gradientUnits="userSpaceOnUse"><stop stop-color="#FA7E05" stop-opacity=".3"/><stop offset=".711" stop-color="#FA7E05" stop-opacity="0"/><stop offset="1" stop-color="#FA7E05" stop-opacity=".4"/></linearGradient><linearGradient id="E" x1="1386.21" y1="110.265" x2="1122.68" y2="776.837" gradientUnits="userSpaceOnUse"><stop stop-color="#FA7E05" stop-opacity=".3"/><stop offset=".711" stop-color="#FA7E05" stop-opacity="0"/><stop offset="1" stop-color="#FA7E05" stop-opacity=".4"/></linearGradient><linearGradient id="F" x1="1373.54" y1="128.338" x2="1110.01" y2="794.91" gradientUnits="userSpaceOnUse"><stop stop-color="#FA7E05" stop-opacity=".3"/><stop offset=".711" stop-color="#FA7E05" stop-opacity="0"/><stop offset="1" stop-color="#FA7E05" stop-opacity=".4"/></linearGradient><linearGradient id="G" x1="1360.32" y1="146.501" x2="1096.79" y2="813.073" gradientUnits="userSpaceOnUse"><stop stop-color="#FA7E05" stop-opacity=".3"/><stop offset=".711" stop-color="#FA7E05" stop-opacity="0"/><stop offset="1" stop-color="#FA7E05" stop-opacity=".4"/></linearGradient><linearGradient id="H" x1="1346.51" y1="164.736" x2="1082.99" y2="831.308" gradientUnits="userSpaceOnUse"><stop stop-color="#FA7E05" stop-opacity=".3"/><stop offset=".711" stop-color="#FA7E05" stop-opacity="0"/><stop offset="1" stop-color="#FA7E05" stop-opacity=".4"/></linearGradient><linearGradient id="I" x1="1332.14" y1="183" x2="1068.61" y2="849.572" gradientUnits="userSpaceOnUse"><stop stop-color="#FA7E05" stop-opacity=".3"/><stop offset=".711" stop-color="#FA7E05" stop-opacity="0"/><stop offset="1" stop-color="#FA7E05" stop-opacity=".4"/></linearGradient><linearGradient id="J" x1="1317.22" y1="201.1" x2="1053.69" y2="867.672" gradientUnits="userSpaceOnUse"><stop stop-color="#FA7E05" stop-opacity=".3"/><stop offset=".711" stop-color="#FA7E05" stop-opacity="0"/><stop offset="1" stop-color="#FA7E05" stop-opacity=".4"/></linearGradient><linearGradient id="K" x1="1301.74" y1="219.079" x2="1038.21" y2="885.651" gradientUnits="userSpaceOnUse"><stop stop-color="#FA7E05" stop-opacity=".3"/><stop offset=".711" stop-color="#FA7E05" stop-opacity="0"/><stop offset="1" stop-color="#FA7E05" stop-opacity=".4"/></linearGradient><linearGradient id="L" x1="1285.71" y1="236.789" x2="1022.18" y2="903.361" gradientUnits="userSpaceOnUse"><stop stop-color="#FA7E05" stop-opacity=".3"/><stop offset=".711" stop-color="#FA7E05" stop-opacity="0"/><stop offset="1" stop-color="#FA7E05" stop-opacity=".4"/></linearGradient><linearGradient id="M" x1="1269.18" y1="254.203" x2="1005.66" y2="920.775" gradientUnits="userSpaceOnUse"><stop stop-color="#FA7E05" stop-opacity=".3"/><stop offset=".711" stop-color="#FA7E05" stop-opacity="0"/><stop offset="1" stop-color="#FA7E05" stop-opacity=".4"/></linearGradient><linearGradient id="N" x1="1252.13" y1="271.154" x2="988.607" y2="937.727" gradientUnits="userSpaceOnUse"><stop stop-color="#FA7E05" stop-opacity=".3"/><stop offset=".711" stop-color="#FA7E05" stop-opacity="0"/><stop offset="1" stop-color="#FA7E05" stop-opacity=".4"/></linearGradient><linearGradient id="O" x1="1234.55" y1="287.644" x2="971.028" y2="954.216" gradientUnits="userSpaceOnUse"><stop stop-color="#FA7E05" stop-opacity=".3"/><stop offset=".711" stop-color="#FA7E05" stop-opacity="0"/><stop offset="1" stop-color="#FA7E05" stop-opacity=".4"/></linearGradient><linearGradient id="P" x1="1216.53" y1="303.452" x2="953.008" y2="970.024" gradientUnits="userSpaceOnUse"><stop stop-color="#FA7E05" stop-opacity=".3"/><stop offset=".711" stop-color="#FA7E05" stop-opacity="0"/><stop offset="1" stop-color="#FA7E05" stop-opacity=".4"/></linearGradient><linearGradient id="Q" x1="1198.07" y1="318.578" x2="934.546" y2="985.15" gradientUnits="userSpaceOnUse"><stop stop-color="#FA7E05" stop-opacity=".3"/><stop offset=".711" stop-color="#FA7E05" stop-opacity="0"/><stop offset="1" stop-color="#FA7E05" stop-opacity=".4"/></linearGradient><linearGradient id="R" x1="1179.2" y1="332.829" x2="915.67" y2="999.401" gradientUnits="userSpaceOnUse"><stop stop-color="#FA7E05" stop-opacity=".3"/><stop offset=".711" stop-color="#FA7E05" stop-opacity="0"/><stop offset="1" stop-color="#FA7E05" stop-opacity=".4"/></linearGradient><linearGradient id="S" x1="1159.97" y1="346.18" x2="896.44" y2="1012.75" gradientUnits="userSpaceOnUse"><stop stop-color="#FA7E05" stop-opacity=".3"/><stop offset=".711" stop-color="#FA7E05" stop-opacity="0"/><stop offset="1" stop-color="#FA7E05" stop-opacity=".4"/></linearGradient><linearGradient id="T" x1="1140.41" y1="358.437" x2="876.881" y2="1025.01" gradientUnits="userSpaceOnUse"><stop stop-color="#FA7E05" stop-opacity=".3"/><stop offset=".711" stop-color="#FA7E05" stop-opacity="0"/><stop offset="1" stop-color="#FA7E05" stop-opacity=".4"/></linearGradient><linearGradient id="U" x1="1120.6" y1="369.53" x2="857.073" y2="1036.1" gradientUnits="userSpaceOnUse"><stop stop-color="#FA7E05" stop-opacity=".3"/><stop offset=".711" stop-color="#FA7E05" stop-opacity="0"/><stop offset="1" stop-color="#FA7E05" stop-opacity=".4"/></linearGradient><linearGradient id="V" x1="1100.53" y1="379.353" x2="837.006" y2="1045.93" gradientUnits="userSpaceOnUse"><stop stop-color="#FA7E05" stop-opacity=".3"/><stop offset=".711" stop-color="#FA7E05" stop-opacity="0"/><stop offset="1" stop-color="#FA7E05" stop-opacity=".4"/></linearGradient><linearGradient id="W" x1="1080.32" y1="387.749" x2="816.792" y2="1054.32" gradientUnits="userSpaceOnUse"><stop stop-color="#FA7E05" stop-opacity=".3"/><stop offset=".711" stop-color="#FA7E05" stop-opacity="0"/><stop offset="1" stop-color="#FA7E05" stop-opacity=".4"/></linearGradient><linearGradient id="X" x1="1060.01" y1="394.586" x2="796.485" y2="1061.16" gradientUnits="userSpaceOnUse"><stop stop-color="#FA7E05" stop-opacity=".3"/><stop offset=".711" stop-color="#FA7E05" stop-opacity="0"/><stop offset="1" stop-color="#FA7E05" stop-opacity=".4"/></linearGradient><linearGradient id="Y" x1="1039.69" y1="399.793" x2="776.162" y2="1066.37" gradientUnits="userSpaceOnUse"><stop stop-color="#FA7E05" stop-opacity=".3"/><stop offset=".711" stop-color="#FA7E05" stop-opacity="0"/><stop offset="1" stop-color="#FA7E05" stop-opacity=".4"/></linearGradient><linearGradient id="Z" x1="1019.4" y1="403.239" x2="755.875" y2="1069.81" gradientUnits="userSpaceOnUse"><stop stop-color="#FA7E05" stop-opacity=".3"/><stop offset=".711" stop-color="#FA7E05" stop-opacity="0"/><stop offset="1" stop-color="#FA7E05" stop-opacity=".4"/></linearGradient><linearGradient id="aa" x1="999.283" y1="404.721" x2="735.757" y2="1071.29" gradientUnits="userSpaceOnUse"><stop stop-color="#FA7E05" stop-opacity=".3"/><stop offset=".711" stop-color="#FA7E05" stop-opacity="0"/><stop offset="1" stop-color="#FA7E05" stop-opacity=".4"/></linearGradient><linearGradient id="ab" x1="979.331" y1="404.241" x2="715.805" y2="1070.81" gradientUnits="userSpaceOnUse"><stop stop-color="#FA7E05" stop-opacity=".3"/><stop offset=".711" stop-color="#FA7E05" stop-opacity="0"/><stop offset="1" stop-color="#FA7E05" stop-opacity=".4"/></linearGradient><linearGradient id="ac" x1="959.677" y1="401.595" x2="696.151" y2="1068.17" gradientUnits="userSpaceOnUse"><stop stop-color="#FA7E05" stop-opacity=".3"/><stop offset=".711" stop-color="#FA7E05" stop-opacity="0"/><stop offset="1" stop-color="#FA7E05" stop-opacity=".4"/></linearGradient><linearGradient id="ad" x1="940.505" y1="396.704" x2="676.979" y2="1063.28" gradientUnits="userSpaceOnUse"><stop stop-color="#FA7E05" stop-opacity=".3"/><stop offset=".711" stop-color="#FA7E05" stop-opacity="0"/><stop offset="1" stop-color="#FA7E05" stop-opacity=".4"/></linearGradient><linearGradient id="ae" x1="921.805" y1="389.463" x2="658.279" y2="1056.04" gradientUnits="userSpaceOnUse"><stop stop-color="#FA7E05" stop-opacity=".3"/><stop offset=".711" stop-color="#FA7E05" stop-opacity="0"/><stop offset="1" stop-color="#FA7E05" stop-opacity=".4"/></linearGradient><linearGradient id="af" x1="903.718" y1="379.776" x2="640.192" y2="1046.35" gradientUnits="userSpaceOnUse"><stop stop-color="#FA7E05" stop-opacity=".3"/><stop offset=".711" stop-color="#FA7E05" stop-opacity="0"/><stop offset="1" stop-color="#FA7E05" stop-opacity=".4"/></linearGradient><linearGradient id="ag" x1="886.339" y1="367.527" x2="622.813" y2="1034.1" gradientUnits="userSpaceOnUse"><stop stop-color="#FA7E05" stop-opacity=".3"/><stop offset=".711" stop-color="#FA7E05" stop-opacity="0"/><stop offset="1" stop-color="#FA7E05" stop-opacity=".4"/></linearGradient><linearGradient id="ah" x1="869.852" y1="352.638" x2="606.326" y2="1019.21" gradientUnits="userSpaceOnUse"><stop stop-color="#FA7E05" stop-opacity=".3"/><stop offset=".711" stop-color="#FA7E05" stop-opacity="0"/><stop offset="1" stop-color="#FA7E05" stop-opacity=".4"/></linearGradient><linearGradient id="ai" x1="854.273" y1="335.064" x2="590.747" y2="1001.64" gradientUnits="userSpaceOnUse"><stop stop-color="#FA7E05" stop-opacity=".3"/><stop offset=".711" stop-color="#FA7E05" stop-opacity="0"/><stop offset="1" stop-color="#FA7E05" stop-opacity=".4"/></linearGradient><linearGradient id="aj" x1="839.771" y1="314.77" x2="576.245" y2="981.342" gradientUnits="userSpaceOnUse"><stop stop-color="#FA7E05" stop-opacity=".3"/><stop offset=".711" stop-color="#FA7E05" stop-opacity="0"/><stop offset="1" stop-color="#FA7E05" stop-opacity=".4"/></linearGradient><linearGradient id="ak" x1="826.484" y1="291.659" x2="562.958" y2="958.231" gradientUnits="userSpaceOnUse"><stop stop-color="#FA7E05" stop-opacity=".3"/><stop offset=".711" stop-color="#FA7E05" stop-opacity="0"/><stop offset="1" stop-color="#FA7E05" stop-opacity=".4"/></linearGradient><linearGradient id="al" x1="814.516" y1="265.72" x2="550.99" y2="932.292" gradientUnits="userSpaceOnUse"><stop stop-color="#FA7E05" stop-opacity=".3"/><stop offset=".711" stop-color="#FA7E05" stop-opacity="0"/><stop offset="1" stop-color="#FA7E05" stop-opacity=".4"/></linearGradient><linearGradient id="am" x1="804.035" y1="236.92" x2="540.509" y2="903.492" gradientUnits="userSpaceOnUse"><stop stop-color="#FA7E05" stop-opacity=".3"/><stop offset=".711" stop-color="#FA7E05" stop-opacity="0"/><stop offset="1" stop-color="#FA7E05" stop-opacity=".4"/></linearGradient><linearGradient id="an" x1="795.067" y1="205.318" x2="531.541" y2="871.89" gradientUnits="userSpaceOnUse"><stop stop-color="#FA7E05" stop-opacity=".3"/><stop offset=".711" stop-color="#FA7E05" stop-opacity="0"/><stop offset="1" stop-color="#FA7E05" stop-opacity=".4"/></linearGradient><linearGradient id="ao" x1="787.78" y1="170.88" x2="524.254" y2="837.452" gradientUnits="userSpaceOnUse"><stop stop-color="#FA7E05" stop-opacity=".3"/><stop offset=".711" stop-color="#FA7E05" stop-opacity="0"/><stop offset="1" stop-color="#FA7E05" stop-opacity=".4"/></linearGradient><linearGradient id="ap" x1="782.33" y1="133.719" x2="518.804" y2="800.291" gradientUnits="userSpaceOnUse"><stop stop-color="#FA7E05" stop-opacity=".3"/><stop offset=".711" stop-color="#FA7E05" stop-opacity="0"/><stop offset="1" stop-color="#FA7E05" stop-opacity=".4"/></linearGradient><linearGradient id="aq" x1="778.762" y1="93.852" x2="515.236" y2="760.424" gradientUnits="userSpaceOnUse"><stop stop-color="#FA7E05" stop-opacity=".3"/><stop offset=".711" stop-color="#FA7E05" stop-opacity="0"/><stop offset="1" stop-color="#FA7E05" stop-opacity=".4"/></linearGradient><linearGradient id="ar" x1="777.206" y1="51.331" x2="513.68" y2="717.903" gradientUnits="userSpaceOnUse"><stop stop-color="#FA7E05" stop-opacity=".3"/><stop offset=".711" stop-color="#FA7E05" stop-opacity="0"/><stop offset="1" stop-color="#FA7E05" stop-opacity=".4"/></linearGradient><linearGradient id="as" x1="777.771" y1="6.4" x2="514.245" y2="672.972" gradientUnits="userSpaceOnUse"><stop stop-color="#FA7E05" stop-opacity=".3"/><stop offset=".711" stop-color="#FA7E05" stop-opacity="0"/><stop offset="1" stop-color="#FA7E05" stop-opacity=".4"/></linearGradient><linearGradient id="at" x1="780.541" y1="-40.905" x2="517.015" y2="625.667" gradientUnits="userSpaceOnUse"><stop stop-color="#FA7E05" stop-opacity=".3"/><stop offset=".711" stop-color="#FA7E05" stop-opacity="0"/><stop offset="1" stop-color="#FA7E05" stop-opacity=".4"/></linearGradient><linearGradient id="au" x1="785.583" y1="-90.357" x2="522.057" y2="576.216" gradientUnits="userSpaceOnUse"><stop stop-color="#FA7E05" stop-opacity=".3"/><stop offset=".711" stop-color="#FA7E05" stop-opacity="0"/><stop offset="1" stop-color="#FA7E05" stop-opacity=".4"/></linearGradient><linearGradient id="av" x1="792.973" y1="-141.772" x2="529.446" y2="524.8" gradientUnits="userSpaceOnUse"><stop stop-color="#FA7E05" stop-opacity=".3"/><stop offset=".711" stop-color="#FA7E05" stop-opacity="0"/><stop offset="1" stop-color="#FA7E05" stop-opacity=".4"/></linearGradient><linearGradient id="aw" x1="802.772" y1="-194.923" x2="539.246" y2="471.649" gradientUnits="userSpaceOnUse"><stop stop-color="#FA7E05" stop-opacity=".3"/><stop offset=".711" stop-color="#FA7E05" stop-opacity="0"/><stop offset="1" stop-color="#FA7E05" stop-opacity=".4"/></linearGradient><linearGradient id="ax" x1="815.047" y1="-249.581" x2="551.521" y2="416.991" gradientUnits="userSpaceOnUse"><stop stop-color="#FA7E05" stop-opacity=".3"/><stop offset=".711" stop-color="#FA7E05" stop-opacity="0"/><stop offset="1" stop-color="#FA7E05" stop-opacity=".4"/></linearGradient><linearGradient id="ay" x1="829.716" y1="-305.424" x2="566.19" y2="361.148" gradientUnits="userSpaceOnUse"><stop stop-color="#FA7E05" stop-opacity=".3"/><stop offset=".711" stop-color="#FA7E05" stop-opacity="0"/><stop offset="1" stop-color="#FA7E05" stop-opacity=".4"/></linearGradient><linearGradient id="az" x1="846.871" y1="-362.161" x2="583.345" y2="304.411" gradientUnits="userSpaceOnUse"><stop stop-color="#FA7E05" stop-opacity=".3"/><stop offset=".711" stop-color="#FA7E05" stop-opacity="0"/><stop offset="1" stop-color="#FA7E05" stop-opacity=".4"/></linearGradient><linearGradient id="aA" x1="866.537" y1="-419.479" x2="603.011" y2="247.093" gradientUnits="userSpaceOnUse"><stop stop-color="#FA7E05" stop-opacity=".3"/><stop offset=".711" stop-color="#FA7E05" stop-opacity="0"/><stop offset="1" stop-color="#FA7E05" stop-opacity=".4"/></linearGradient><linearGradient id="aB" x1="888.56" y1="-476.98" x2="625.034" y2="189.592" gradientUnits="userSpaceOnUse"><stop stop-color="#FA7E05" stop-opacity=".3"/><stop offset=".711" stop-color="#FA7E05" stop-opacity="0"/><stop offset="1" stop-color="#FA7E05" stop-opacity=".4"/></linearGradient><linearGradient id="aC" x1="912.994" y1="-534.29" x2="649.467" y2="132.282" gradientUnits="userSpaceOnUse"><stop stop-color="#FA7E05" stop-opacity=".3"/><stop offset=".711" stop-color="#FA7E05" stop-opacity="0"/><stop offset="1" stop-color="#FA7E05" stop-opacity=".4"/></linearGradient><linearGradient id="aD" x1="939.637" y1="-591.03" x2="676.111" y2="75.542" gradientUnits="userSpaceOnUse"><stop stop-color="#FA7E05" stop-opacity=".3"/><stop offset=".711" stop-color="#FA7E05" stop-opacity="0"/><stop offset="1" stop-color="#FA7E05" stop-opacity=".4"/></linearGradient><linearGradient id="aE" x1="968.492" y1="-646.693" x2="704.966" y2="19.879" gradientUnits="userSpaceOnUse"><stop stop-color="#FA7E05" stop-opacity=".3"/><stop offset=".711" stop-color="#FA7E05" stop-opacity="0"/><stop offset="1" stop-color="#FA7E05" stop-opacity=".4"/></linearGradient><linearGradient id="aF" x1="999.42" y1="-700.928" x2="735.894" y2="-34.356" gradientUnits="userSpaceOnUse"><stop stop-color="#FA7E05" stop-opacity=".3"/><stop offset=".711" stop-color="#FA7E05" stop-opacity="0"/><stop offset="1" stop-color="#FA7E05" stop-opacity=".4"/></linearGradient><linearGradient id="aG" x1="1032.21" y1="-753.208" x2="768.688" y2="-86.636" gradientUnits="userSpaceOnUse"><stop stop-color="#FA7E05" stop-opacity=".3"/><stop offset=".711" stop-color="#FA7E05" stop-opacity="0"/><stop offset="1" stop-color="#FA7E05" stop-opacity=".4"/></linearGradient><linearGradient id="aH" x1="1653.8" y1="-778.59" x2="1390.28" y2="-112.018" gradientUnits="userSpaceOnUse"><stop stop-color="#FA7E05" stop-opacity=".3"/><stop offset=".711" stop-color="#FA7E05" stop-opacity="0"/><stop offset="1" stop-color="#FA7E05" stop-opacity=".4"/></linearGradient><linearGradient id="aI" x1="1656.78" y1="-714.653" x2="1393.26" y2="-48.081" gradientUnits="userSpaceOnUse"><stop stop-color="#FA7E05" stop-opacity=".3"/><stop offset=".711" stop-color="#FA7E05" stop-opacity="0"/><stop offset="1" stop-color="#FA7E05" stop-opacity=".4"/></linearGradient><linearGradient id="aJ" x1="1654.88" y1="-645.799" x2="1391.35" y2="20.773" gradientUnits="userSpaceOnUse"><stop stop-color="#FA7E05" stop-opacity=".3"/><stop offset=".711" stop-color="#FA7E05" stop-opacity="0"/><stop offset="1" stop-color="#FA7E05" stop-opacity=".4"/></linearGradient><linearGradient id="aK" x1="1648" y1="-572.824" x2="1384.47" y2="93.748" gradientUnits="userSpaceOnUse"><stop stop-color="#FA7E05" stop-opacity=".3"/><stop offset=".711" stop-color="#FA7E05" stop-opacity="0"/><stop offset="1" stop-color="#FA7E05" stop-opacity=".4"/></linearGradient><linearGradient id="aL" x1="1636.06" y1="-496.316" x2="1372.54" y2="170.257" gradientUnits="userSpaceOnUse"><stop stop-color="#FA7E05" stop-opacity=".3"/><stop offset=".711" stop-color="#FA7E05" stop-opacity="0"/><stop offset="1" stop-color="#FA7E05" stop-opacity=".4"/></linearGradient><linearGradient id="aM" x1="1619.12" y1="-417.273" x2="1355.6" y2="249.299" gradientUnits="userSpaceOnUse"><stop stop-color="#FA7E05" stop-opacity=".3"/><stop offset=".711" stop-color="#FA7E05" stop-opacity="0"/><stop offset="1" stop-color="#FA7E05" stop-opacity=".4"/></linearGradient><linearGradient id="aN" x1="1597.21" y1="-336.44" x2="1333.68" y2="330.132" gradientUnits="userSpaceOnUse"><stop stop-color="#FA7E05" stop-opacity=".3"/><stop offset=".711" stop-color="#FA7E05" stop-opacity="0"/><stop offset="1" stop-color="#FA7E05" stop-opacity=".4"/></linearGradient><linearGradient id="aO" x1="1570.43" y1="-254.843" x2="1306.9" y2="411.729" gradientUnits="userSpaceOnUse"><stop stop-color="#FA7E05" stop-opacity=".3"/><stop offset=".711" stop-color="#FA7E05" stop-opacity="0"/><stop offset="1" stop-color="#FA7E05" stop-opacity=".4"/></linearGradient></defs></svg>